<svg width="30" height="30" viewBox="0 0 30 30" fill="none" xmlns="http://www.w3.org/2000/svg">
<path d="M15.0033 7.30675C10.7468 7.30675 7.31344 10.7401 7.31344 14.9967C7.31344 19.2532 10.7468 22.6866 15.0033 22.6866C19.2599 22.6866 22.6933 19.2532 22.6933 14.9967C22.6933 10.7401 19.2599 7.30675 15.0033 7.30675ZM15.0033 19.9961C12.2527 19.9961 10.0039 17.754 10.0039 14.9967C10.0039 12.2393 12.246 9.99721 15.0033 9.99721C17.7607 9.99721 20.0028 12.2393 20.0028 14.9967C20.0028 17.754 17.754 19.9961 15.0033 19.9961ZM24.8015 6.99219C24.8015 7.9894 23.9983 8.78583 23.0078 8.78583C22.0106 8.78583 21.2142 7.98271 21.2142 6.99219C21.2142 6.00167 22.0173 5.19855 23.0078 5.19855C23.9983 5.19855 24.8015 6.00167 24.8015 6.99219ZM29.8946 8.8126C29.7808 6.40993 29.232 4.28165 27.4718 2.52816C25.7184 0.774679 23.5901 0.225878 21.1874 0.10541C18.7111 -0.0351366 11.2889 -0.0351366 8.81261 0.10541C6.41662 0.219186 4.28834 0.767986 2.52817 2.52147C0.767987 4.27496 0.225878 6.40323 0.10541 8.80591C-0.0351366 11.2822 -0.0351366 18.7044 0.10541 21.1807C0.219186 23.5834 0.767987 25.7117 2.52817 27.4651C4.28834 29.2186 6.40993 29.7674 8.81261 29.8879C11.2889 30.0284 18.7111 30.0284 21.1874 29.8879C23.5901 29.7741 25.7184 29.2253 27.4718 27.4651C29.2253 25.7117 29.7741 23.5834 29.8946 21.1807C30.0351 18.7044 30.0351 11.2889 29.8946 8.8126ZM26.6955 23.8377C26.1735 25.1495 25.1629 26.1601 23.8444 26.6888C21.8701 27.4718 17.1852 27.2911 15.0033 27.2911C12.8215 27.2911 8.12995 27.4651 6.1623 26.6888C4.85053 26.1668 3.83993 25.1562 3.31121 23.8377C2.52817 21.8634 2.70887 17.1785 2.70887 14.9967C2.70887 12.8148 2.53486 8.12326 3.31121 6.1556C3.83324 4.84384 4.84384 3.83324 6.1623 3.30452C8.13664 2.52147 12.8215 2.70217 15.0033 2.70217C17.1852 2.70217 21.8767 2.52816 23.8444 3.30452C25.1562 3.82655 26.1668 4.83714 26.6955 6.1556C27.4785 8.12995 27.2978 12.8148 27.2978 14.9967C27.2978 17.1785 27.4785 21.87 26.6955 23.8377Z" fill="#96A88D"/>
</svg>
