<svg width="30" height="30" viewBox="0 0 30 30" fill="none" xmlns="http://www.w3.org/2000/svg">
<path d="M6.71518 29.9993H0.495536V9.97031H6.71518V29.9993ZM3.60201 7.23817C1.61317 7.23817 0 5.59085 0 3.60201C1.42353e-08 2.6467 0.379496 1.73051 1.055 1.055C1.73051 0.379496 2.6467 0 3.60201 0C4.55732 0 5.47351 0.379496 6.14901 1.055C6.82452 1.73051 7.20402 2.6467 7.20402 3.60201C7.20402 5.59085 5.59018 7.23817 3.60201 7.23817ZM29.9933 29.9993H23.7871V20.2493C23.7871 17.9257 23.7402 14.9458 20.5533 14.9458C17.3196 14.9458 16.8241 17.4703 16.8241 20.0819V29.9993H10.6112V9.97031H16.5763V12.7025H16.6634C17.4937 11.1288 19.5221 9.46808 22.5482 9.46808C28.8429 9.46808 30 13.6132 30 18.9971V29.9993H29.9933Z" fill="#96A88D"/>
</svg>
